<svg xmlns="http://www.w3.org/2000/svg" width="81" height="81" viewBox="0 0 81 81">
  <g id="Group_3428" data-name="Group 3428" transform="translate(-1564.575 -1576.575)">
    <circle id="Ellipse_150" data-name="Ellipse 150" cx="40.5" cy="40.5" r="40.5" transform="translate(1564.575 1576.575)" fill="#eee" opacity="0"/>
    <g id="Group_3386" data-name="Group 3386" transform="translate(1576.687 1596.832)">
      <path id="Path_3949" data-name="Path 3949" d="M148.8,380.6a12.558,12.558,0,0,1,6.3,1.467,12.125,12.125,0,0,1,4.163,3.845,16.511,16.511,0,0,1,2.3,5.352,25.566,25.566,0,0,1,.713,5.986v23.627H151.729l.079-23.693a5.976,5.976,0,0,0-.476-2.379,6.681,6.681,0,0,0-1.308-1.995,6.226,6.226,0,0,0-1.982-1.388,5.845,5.845,0,0,0-2.418-.515,5.979,5.979,0,0,0-4.44,1.863,6.134,6.134,0,0,0-1.823,4.414v23.693H128.817V397.185a5.976,5.976,0,0,0-.476-2.379,6.325,6.325,0,0,0-1.348-1.995,6.16,6.16,0,0,0-2.022-1.348,6.684,6.684,0,0,0-2.577-.476,5.618,5.618,0,0,1-.713-1.176c-.423-.793-.9-1.652-1.427-2.6-.582-1.1-1.3-2.352-2.141-3.779l.079-.159a11.909,11.909,0,0,1,7.532-2.669,12.225,12.225,0,0,1,7.215,1.969,13.5,13.5,0,0,1,4.281,4.876,6.418,6.418,0,0,1,.634-.939,15.623,15.623,0,0,1,5.035-4.413A12.479,12.479,0,0,1,148.8,380.6Z" transform="translate(-105.824 -380.602)" fill="#293062" fill-rule="evenodd"/>
      <rect id="Rectangle_83" data-name="Rectangle 83" width="10.545" height="39.642" transform="translate(0 0.634)" fill="#293062"/>
    </g>
  </g>
</svg>
